Coordinates
version=1
nRows=12
nColumns=33
inDegrees=yes

Units are S.I. units (second, meters, Newtons, ...)
Angles are in degrees.

endheader
time	ground_thorax_rot_x	ground_thorax_rot_y	ground_thorax_rot_z	ground_thorax_tx	ground_thorax_ty	ground_thorax_tz	clav_prot_r	clav_elev_r	scapula_abduction_r	scapula_elevation_r	scapula_upward_rot_r	scapula_winging_r	shoulder_elv_r	plane_of_elev_r	axial_rot_r	elbow_flexion_r	pro_sup_r	wrist_flex_r	wrist_dev_r	clav_prot_l	clav_elev_l	scapula_abduction_l	scapula_elevation_l	scapula_upward_rot_l	scapula_winging_l	shoulder_elv_l	plane_of_elev_l	axial_rot_l	elbow_flexion_l	pro_sup_l	wrist_flex_l	wrist_dev_l
      4.30000000	    -39.58719951	     -6.33202235	     10.23601431	   -102.18128310	    783.11417283	      6.25362664	      6.19580711	    -45.00000000	     43.75092104	    -45.00000000	    -28.48148183	  -1168.57319901	  -1190.61007896	    144.09805598	    179.99999979	   1088.54041014	     54.97635847	     23.96976875	     13.05440338	     19.50470467	     40.96237251	    -45.00000000	    -42.17916058	    -31.69752943	   -640.43191085	  -2812.75491223	     26.77150366	    -23.90717512	    369.58307852	     26.45673584	      7.04497937	    -19.69861097
      4.31000000	    -39.64400276	     -6.02298071	      9.94043218	   -104.32905257	    784.28278197	      6.21766702	      6.04793029	    -45.00000000	     43.92783568	    -45.00000000	    -27.91716795	  -1168.84695659	  -1190.54725325	    144.10006888	    179.99999979	   1088.65036120	     55.02942049	     24.02602360	     12.97036506	     18.56290901	     41.06270516	    -45.00000000	    -42.14173448	    -30.55369216	   -639.83517333	  -2813.09492507	     26.49352321	    -25.48025065	    369.68782450	     25.85894586	      6.97876553	    -19.69890996
      4.32000000	    -39.73230389	     -5.88229108	      9.84834379	   -106.56290502	    785.48369488	      6.18783426	      6.07155236	    -45.00000000	     43.79739947	    -45.00000000	    -27.99288481	  -1169.00083340	  -1190.37269525	    144.04849502	    179.99999979	   1088.86340037	     55.08349488	     24.11243991	     12.86459139	     18.52569675	     41.30426310	    -45.00000000	    -42.29899286	    -30.32469163	   -639.55553063	  -2813.11923602	     26.33909261	    -25.96523985	    369.79430972	     25.13403042	      6.95072216	    -19.72177565
      4.33000000	    -39.84301401	     -5.90176749	     10.08023532	   -108.87047644	    786.71675630	      6.15879969	      6.11317549	    -45.00000000	     43.62341746	    -45.00000000	    -28.92503728	  -1168.95222901	  -1189.87544777	    143.94545550	    179.99999979	   1088.95572466	     55.18003985	     24.22003787	     12.84779584	     18.81841269	     41.76229288	    -45.00000000	    -42.73718284	    -31.06474678	   -639.57291736	  -2813.01000858	     26.47901403	    -25.88787679	    369.88901438	     24.25375945	      6.82699121	    -19.68761380
      4.34000000	    -39.98594576	     -6.16660311	     10.55606553	   -111.24525397	    787.98065828	      6.12765708	      6.13953811	    -45.00000000	     43.06193469	    -45.00000000	    -30.03507305	  -1168.91961056	  -1189.68100230	    143.89659952	    179.99999979	   1089.18669550	     55.23842092	     24.30150098	     12.73847617	     19.03410762	     42.13779032	    -44.72231643	    -43.31132448	    -32.00073787	   -639.78564259	  -2812.84238854	     26.64040206	    -25.54496056	    369.98347291	     23.38823255	      6.76840141	    -19.68660695
      4.35000000	    -40.16681723	     -7.51262392	     12.46891068	   -113.69115313	    789.27525634	      6.09248757	      6.28609851	    -45.00000000	     41.36069080	    -45.00000000	    -34.35556333	  -1168.56173081	  -1189.10495815	    143.38642900	    179.99999979	   1089.45219626	     55.26715770	     24.40599357	     12.57335334	     20.18609699	     41.65600152	    -44.06476468	    -44.64399146	    -35.67236048	   -641.20654026	  -2811.84862239	     27.08630176	    -22.83710268	    369.88881199	     21.55029142	      7.13551049	    -19.73406684
      4.36000000	    -40.19375769	     -7.11415211	     11.92935938	   -116.19354595	    790.60083015	      6.05194484	      6.01159372	    -45.00000000	     41.81581479	    -45.00000000	    -33.28838101	  -1168.82533010	  -1189.04858040	    143.57252105	    179.99999979	   1089.51874600	     55.29367815	     24.45280597	     12.50403345	     19.02878673	     41.95863565	    -43.87231506	    -44.45095275	    -34.19175886	   -640.50654108	  -2812.15046070	     26.88584454	    -24.53935056	    369.98769739	     21.41343515	      7.03037662	    -19.79832895
      4.37000000	    -40.18484663	     -7.88524106	     13.07242092	   -118.77644833	    791.95842212	      5.99994485	      6.31967414	    -45.00000000	     40.89026699	    -45.00000000	    -36.16976291	  -1168.82939432	  -1188.40102344	    143.13044416	    179.99999979	   1089.87053515	     55.31888088	     24.57191720	     12.38298441	     19.80264490	     41.58125631	    -43.59965856	    -45.00000000	    -36.53097312	   -641.06884494	  -2811.40155452	     27.18776813	    -22.74696495	    369.98836317	     20.33590365	      7.12222153	    -19.81045909
      4.38000000	    -40.39788895	     -7.11437522	     12.22919699	   -121.41006937	    793.34245213	      5.94046189	      5.94321257	    -45.00000000	     41.12116268	    -45.00000000	    -34.74648337	  -1169.04674762	  -1188.53598504	    143.35513928	    179.99999979	   1089.97222627	     55.33513216	     24.59595847	     12.26468323	     19.07567640	     42.00474274	    -43.67045670	    -45.00000000	    -34.74326669	   -640.23398863	  -2811.96817242	     27.08008351	    -24.49473332	    370.15463971	     20.30549692	      7.02977706	    -19.90873113
      4.39000000	    -40.36225799	     -7.19860294	     12.19562820	   -124.07586521	    794.73630226	      5.88233308	      6.05893638	    -45.00000000	     41.21514158	    -45.00000000	    -35.17547922	  -1169.15392304	  -1188.14322004	    143.25219569	    179.99999979	   1090.14481312	     55.37356432	     24.67290313	     12.19425648	     18.98113963	     42.21742865	    -43.38889792	    -45.00000000	    -34.62826658	   -640.12056834	  -2811.77085485	     26.93664465	    -24.68706865	    370.17345142	     20.02849389	      6.89905115	    -19.92786207
      4.40000000	    -40.29947610	     -7.31316090	     12.41882409	   -126.72675518	    796.11987788	      5.83902849	      6.14533849	    -45.00000000	     41.17616742	    -45.00000000	    -35.98239394	  -1169.36705814	  -1187.71854424	    143.12775998	    179.99999979	   1090.32583091	     55.42351611	     24.77102063	     12.13863090	     18.89580633	     42.17470164	    -43.28077337	    -45.00000000	    -34.91006209	   -639.98310077	  -2811.51808927	     26.86496113	    -24.61010063	    370.24949923	     19.69774764	      6.78203914	    -19.96009423
      4.41000000	    -40.07474909	     -7.91523566	     13.31537752	   -129.34749962	    797.48335807	      5.81154103	      6.68364045	    -45.00000000	     40.75616472	    -45.00000000	    -38.12975673	  -1169.79956296	  -1187.12646288	    142.65531371	    179.99999979	   1090.77038664	     55.45238838	     24.96566191	     12.13554880	     19.26689926	     41.56865835	    -43.15738222	    -45.00000000	    -36.70869198	   -640.17790116	  -2810.78670670	     26.91025887	    -23.33672255	    370.36345672	     19.01107524	      6.56646619	    -19.91485378
